<svg width="20" height="21" viewBox="0 0 20 21" fill="none" xmlns="http://www.w3.org/2000/svg">
<path d="M2.78217 7.43942L2.8995 8.18018H2.8995L2.78217 7.43942ZM6.93844 3.28315L7.67921 3.40048V3.40048L6.93844 3.28315ZM16.9389 18.5461L16.4981 17.9393L16.9389 18.5461ZM18.0451 17.4399L17.4383 16.9991L18.0451 17.4399ZM1.95491 17.4399L2.56168 16.9991L1.95491 17.4399ZM3.06107 18.5461L3.50191 17.9393L3.06107 18.5461ZM3.06107 2.45589L2.62024 1.84913L3.06107 2.45589ZM1.95491 3.56205L1.34815 3.12121L1.95491 3.56205ZM16.9389 2.45589L16.4981 3.06265L16.9389 2.45589ZM18.0451 3.56205L17.4383 4.00289L18.0451 3.56205ZM7 1.5299L6.97432 0.780345L7 1.5299ZM1.02893 7.50098L0.279369 7.4753L1.02893 7.50098ZM10.25 15.501C10.25 15.9152 10.5858 16.251 11 16.251C11.4142 16.251 11.75 15.9152 11.75 15.501H10.25ZM6.46731 10.173C6.17573 10.4672 6.17784 10.9421 6.47204 11.2337C6.76624 11.5252 7.24111 11.5231 7.53269 11.2289L6.46731 10.173ZM8.39785 9.2906L8.93054 9.81856H8.93054L8.39785 9.2906ZM13.6022 9.2906L13.0695 9.81856L13.6022 9.2906ZM14.4673 11.2289C14.7589 11.5231 15.2338 11.5253 15.528 11.2337C15.8222 10.9421 15.8243 10.4672 15.5327 10.173L14.4673 11.2289ZM10.7493 7.51689L10.6545 6.77291H10.6545L10.7493 7.51689ZM11.2507 7.51689L11.3455 6.77291H11.3455L11.2507 7.51689ZM11 7.50098V6.75098V7.50098ZM2.8995 8.18018C5.35988 7.7905 7.28952 5.86086 7.67921 3.40048L6.19768 3.16582C5.90965 4.98437 4.48339 6.41062 2.66485 6.69865L2.8995 8.18018ZM10 20.251C11.8582 20.251 13.312 20.252 14.4635 20.1272C15.6291 20.001 16.5734 19.7387 17.3798 19.1528L16.4981 17.9393C15.9901 18.3084 15.3399 18.5235 14.302 18.636C13.25 18.7499 11.8916 18.751 10 18.751V20.251ZM18.25 10.501C18.25 12.3925 18.249 13.751 18.135 14.8029C18.0225 15.8408 17.8074 16.4911 17.4383 16.9991L18.6518 17.8807C19.2377 17.0744 19.5 16.13 19.6263 14.9645C19.751 13.813 19.75 12.3591 19.75 10.501H18.25ZM17.3798 19.1528C17.8679 18.7982 18.2972 18.3689 18.6518 17.8807L17.4383 16.9991C17.1762 17.3599 16.8589 17.6772 16.4981 17.9393L17.3798 19.1528ZM0.25 10.501C0.25 12.3591 0.24897 13.813 0.373727 14.9645C0.500005 16.13 0.762323 17.0744 1.34815 17.8807L2.56168 16.9991C2.19259 16.4911 1.97745 15.8408 1.865 14.8029C1.75103 13.751 1.75 12.3925 1.75 10.501H0.25ZM10 18.751C8.10843 18.751 6.74999 18.7499 5.69804 18.636C4.66013 18.5235 4.00992 18.3084 3.50191 17.9393L2.62024 19.1528C3.42656 19.7387 4.37094 20.001 5.53648 20.1272C6.68798 20.252 8.14184 20.251 10 20.251V18.751ZM1.34815 17.8807C1.70281 18.3689 2.13209 18.7982 2.62024 19.1528L3.50191 17.9393C3.14111 17.6772 2.82382 17.3599 2.56168 16.9991L1.34815 17.8807ZM2.62024 1.84913C2.13209 2.20379 1.70281 2.63307 1.34815 3.12121L2.56168 4.00289C2.82381 3.64209 3.14111 3.32479 3.50191 3.06265L2.62024 1.84913ZM10 2.25098C11.8916 2.25098 13.25 2.25201 14.302 2.36598C15.3399 2.47843 15.9901 2.69357 16.4981 3.06265L17.3798 1.84913C16.5734 1.2633 15.6291 1.00098 14.4635 0.874704C13.312 0.749947 11.8582 0.750977 10 0.750977V2.25098ZM19.75 10.501C19.75 8.64282 19.751 7.18895 19.6263 6.03745C19.5 4.87192 19.2377 3.92754 18.6518 3.12121L17.4383 4.00289C17.8074 4.51089 18.0225 5.16111 18.135 6.19902C18.249 7.25097 18.25 8.6094 18.25 10.501H19.75ZM16.4981 3.06265C16.8589 3.32479 17.1762 3.64209 17.4383 4.00289L18.6518 3.12121C18.2972 2.63307 17.8679 2.20379 17.3798 1.84913L16.4981 3.06265ZM10 0.750977C8.83522 0.750977 7.83424 0.750883 6.97432 0.780345L7.02568 2.27947C7.85445 2.25107 8.82692 2.25098 10 2.25098V0.750977ZM6.97432 0.780345C5.10087 0.844531 3.7239 1.04727 2.62024 1.84913L3.50191 3.06265C4.20746 2.55004 5.17075 2.34302 7.02568 2.27947L6.97432 0.780345ZM6.25 1.5299C6.24999 2.46715 6.24707 2.85396 6.19768 3.16582L7.67921 3.40048C7.75165 2.94312 7.74999 2.41218 7.75 1.52991L6.25 1.5299ZM1.75 10.501C1.75 9.3279 1.75009 8.35542 1.77849 7.52666L0.279369 7.4753C0.249906 8.33522 0.25 9.3362 0.25 10.501H1.75ZM1.77849 7.52666C1.84204 5.67173 2.04907 4.70844 2.56168 4.00289L1.34815 3.12121C0.546295 4.22487 0.343555 5.60185 0.279369 7.4753L1.77849 7.52666ZM1.02893 8.25098C1.91121 8.25097 2.44215 8.25262 2.8995 8.18018L2.66485 6.69865C2.35298 6.74805 1.96618 6.75097 1.02892 6.75098L1.02893 8.25098ZM11.75 15.501V8.30098H10.25V15.501H11.75ZM7.53269 11.2289L8.93054 9.81856L7.86516 8.76264L6.46731 10.173L7.53269 11.2289ZM13.0695 9.81856L14.4673 11.2289L15.5327 10.173L14.1348 8.76264L13.0695 9.81856ZM8.93054 9.81856C9.50033 9.24366 9.88386 8.8583 10.2065 8.5992C10.5173 8.34961 10.698 8.2795 10.8442 8.26087L10.6545 6.77291C10.1213 6.84087 9.68367 7.09524 9.26724 7.42967C8.86265 7.75459 8.41012 8.21279 7.86516 8.76264L8.93054 9.81856ZM14.1348 8.76264C13.5899 8.2128 13.1373 7.75459 12.7328 7.42967C12.3163 7.09524 11.8787 6.84087 11.3455 6.77291L11.1558 8.26087C11.302 8.2795 11.4827 8.34961 11.7935 8.59921C12.1161 8.8583 12.4997 9.24366 13.0695 9.81856L14.1348 8.76264ZM10.8442 8.26087C10.8959 8.25427 10.948 8.25098 11 8.25098V6.75098C10.8846 6.75098 10.7692 6.75829 10.6545 6.77291L10.8442 8.26087ZM11 8.25098C11.052 8.25098 11.1041 8.25427 11.1558 8.26087L11.3455 6.77291C11.2308 6.75829 11.1154 6.75098 11 6.75098V8.25098ZM11.75 8.30098V7.50098H10.25V8.30098H11.75Z" fill="#F6F0EE"/>
</svg>
