<svg width="84" height="62" viewBox="0 0 84 62" fill="none" xmlns="http://www.w3.org/2000/svg">
<path d="M0.113638 61.7833C0.0378834 61.7833 0 61.7472 0 61.6748L0.0464894 46.7346C0.0464894 46.6771 0.0774745 46.6475 0.137734 46.6475H7.42226C7.49802 46.6475 7.5359 46.6771 7.5359 46.7346V49.1918C7.5359 49.2493 7.5049 49.2789 7.44464 49.2789H2.77711V52.6489H7.44464C7.5049 52.6489 7.5359 52.685 7.5359 52.7574L7.55828 55.2145C7.55828 55.2721 7.5204 55.3017 7.44464 55.3017H2.77711V61.6731C2.77711 61.7455 2.73924 61.7817 2.66348 61.7817H0.113638V61.7833Z" fill="#FEF8F6"/>
<path d="M13.7734 62.0004C12.9694 62.0004 12.2256 61.8014 11.5421 61.4018C10.8586 61.0021 10.3163 60.4709 9.9151 59.8032C9.51222 59.1371 9.3125 58.4036 9.3125 57.6075L9.35727 46.7346C9.35727 46.6771 9.38825 46.6475 9.44851 46.6475H11.9984C12.0586 46.6475 12.0896 46.6771 12.0896 46.7346V57.6075C12.0896 58.1009 12.2532 58.517 12.5786 58.8575C12.9057 59.1979 13.3034 59.369 13.7734 59.369C14.2589 59.369 14.6653 59.1996 14.9907 58.8575C15.3178 58.517 15.4796 58.0993 15.4796 57.6075V46.7346C15.4796 46.6771 15.5106 46.6475 15.5709 46.6475H18.1207C18.181 46.6475 18.212 46.6771 18.212 46.7346L18.2585 57.6075C18.2585 58.42 18.057 59.1585 17.6559 59.8262C17.253 60.4939 16.7141 61.0219 16.0392 61.4133C15.3643 61.8047 14.6085 62.0004 13.7734 62.0004Z" fill="#FEF8F6"/>
<path d="M20.1498 61.7833C20.0896 61.7833 20.0586 61.7472 20.0586 61.6748L20.1034 46.7346C20.1034 46.6771 20.1344 46.6475 20.1946 46.6475H24.7933C25.6128 46.6475 26.3669 46.8399 27.059 47.2231C27.7494 47.6079 28.3004 48.1227 28.7102 48.7674C29.1199 49.4122 29.3248 50.1407 29.3248 50.9532C29.3248 51.4894 29.2404 51.9712 29.0752 52.3989C28.9081 52.8265 28.7102 53.1899 28.4829 53.486C28.2556 53.7837 28.0507 54.0041 27.8682 54.1488C28.6878 55.0188 29.0975 56.0402 29.0975 57.2145L29.1199 61.6731C29.1199 61.7455 29.082 61.7817 29.0063 61.7817H26.4341C26.3738 61.7817 26.3428 61.7603 26.3428 61.7159V57.2161C26.3428 56.6947 26.15 56.2408 25.7626 55.8576C25.3752 55.4744 24.9017 55.282 24.3405 55.282H22.8374L22.815 61.6748C22.815 61.7472 22.7841 61.7833 22.7238 61.7833H20.1498ZM22.8357 52.6719H24.7933C25.2633 52.6719 25.6817 52.5058 26.045 52.1719C26.41 51.838 26.5907 51.4318 26.5907 50.9548C26.5907 50.4911 26.4117 50.093 26.0553 49.7592C25.6989 49.4253 25.2771 49.2592 24.7916 49.2592H22.834V52.6719H22.8357Z" fill="#FEF8F6"/>
<path d="M31.2322 61.7821C31.11 61.7821 31.0497 61.7311 31.0497 61.6291L31.0273 46.8189C31.0273 46.7037 31.0876 46.6445 31.2098 46.6445H33.2587L37.1067 55.2132L36.993 46.8189C36.993 46.7037 37.0619 46.6445 37.1979 46.6445H39.4516C39.5429 46.6445 39.5876 46.7021 39.5876 46.8189L39.61 61.6505C39.61 61.7377 39.5722 61.7804 39.4964 61.7804H37.4923L33.5548 53.7775L33.7132 61.6061C33.7132 61.7228 33.6443 61.7804 33.5083 61.7804H31.2322V61.7821Z" fill="#FEF8F6"/>
<path d="M41.7035 61.7833C41.6277 61.7833 41.5898 61.7472 41.5898 61.6748L41.6122 46.7346C41.6122 46.6771 41.6432 46.6475 41.7035 46.6475H44.2533C44.3136 46.6475 44.3446 46.6771 44.3446 46.7346L44.367 61.6748C44.367 61.7472 44.336 61.7833 44.2757 61.7833H41.7035Z" fill="#FEF8F6"/>
<path d="M50.5642 61.9994C49.7292 61.9994 48.9734 61.8003 48.2985 61.4007C47.6235 61.001 47.0881 60.4698 46.6938 59.8021C46.2996 59.136 46.1016 58.3893 46.1016 57.562L46.1239 50.7778C46.1239 49.9801 46.3168 49.2515 46.7042 48.592C47.0915 47.9325 47.6218 47.4029 48.2985 47.0049C48.9734 46.6069 49.7292 46.4062 50.5642 46.4062C51.3992 46.4062 52.1499 46.602 52.8179 46.9934C53.4859 47.3848 54.0162 47.9111 54.4122 48.5706C54.8065 49.2302 55.0045 49.967 55.0045 50.7778V51.7777C55.0045 51.8353 54.9735 51.8649 54.9132 51.8649H52.3634C52.3031 51.8649 52.2722 51.8353 52.2722 51.7777V50.7778C52.2722 50.2992 52.1086 49.8864 51.7832 49.5377C51.4561 49.189 51.0515 49.0163 50.5659 49.0163C50.0202 49.0163 49.6018 49.194 49.3143 49.5492C49.025 49.9045 48.8821 50.314 48.8821 50.7778V57.562C48.8821 58.0982 49.0457 58.534 49.3711 58.8663C49.6965 59.2001 50.0959 59.3662 50.5659 59.3662C51.0515 59.3662 51.4578 59.182 51.7832 58.812C52.1086 58.4419 52.2722 58.0258 52.2722 57.562V56.5621C52.2722 56.5045 52.3031 56.4749 52.3634 56.4749H54.9356C54.9959 56.4749 55.0269 56.5045 55.0269 56.5621V57.562C55.0269 58.3877 54.8254 59.136 54.4243 59.8021C54.0214 60.4698 53.4877 61.0027 52.8197 61.4007C52.1499 61.8003 51.3975 61.9994 50.5642 61.9994Z" fill="#FEF8F6"/>
<path d="M60.8935 61.9994C60.0739 61.9994 59.3267 61.8003 58.6518 61.4007C57.9769 61.001 57.4346 60.4731 57.0248 59.8136C56.6151 59.1541 56.4102 58.4255 56.4102 57.6278L56.4325 50.7334C56.4325 49.9357 56.634 49.2104 57.0369 48.5591C57.438 47.9062 57.9821 47.3848 58.6639 46.9934C59.3474 46.602 60.0894 46.4062 60.8952 46.4062C61.7147 46.4062 62.4585 46.602 63.1265 46.9934C63.7945 47.3848 64.3283 47.9062 64.7312 48.5591C65.1323 49.2121 65.3338 49.9374 65.3338 50.7334L65.3561 57.6278C65.3561 58.4255 65.1547 59.1541 64.7535 59.8136C64.3507 60.4731 63.8118 61.0027 63.1369 61.4007C62.4602 61.8003 61.713 61.9994 60.8935 61.9994ZM60.8935 59.3679C61.348 59.3679 61.7475 59.1903 62.0884 58.835C62.4292 58.4798 62.6014 58.0785 62.6014 57.6278L62.579 50.7334C62.579 50.2548 62.4206 49.8485 62.1004 49.5163C61.7819 49.1825 61.379 49.0163 60.8935 49.0163C60.4235 49.0163 60.0206 49.1792 59.6866 49.5065C59.3526 49.8321 59.1855 50.2416 59.1855 50.735V57.6295C59.1855 58.1081 59.3526 58.5176 59.6866 58.858C60.0206 59.1985 60.4235 59.3679 60.8935 59.3679Z" fill="#FEF8F6"/>
<path d="M69.1581 61.7833C69.0978 61.7833 69.0582 61.7472 69.0444 61.6748L65.9023 46.7346C65.8868 46.6771 65.9178 46.6475 65.9936 46.6475H68.5658C68.6261 46.6475 68.6639 46.6771 68.6794 46.7346L70.5458 56.6947L72.3673 46.7346C72.3828 46.6771 72.4207 46.6475 72.481 46.6475H75.0308C75.1065 46.6475 75.1375 46.6771 75.122 46.7346L72.0264 61.6748C72.0109 61.7472 71.9731 61.7833 71.9128 61.7833H69.1581Z" fill="#FEF8F6"/>
<path d="M76.56 61.7833C76.4997 61.7833 76.4688 61.7472 76.4688 61.6748L76.4911 46.7346C76.4911 46.6771 76.5221 46.6475 76.5824 46.6475H83.8893C83.9495 46.6475 83.9805 46.6836 83.9805 46.756V49.1918C83.9805 49.2493 83.9495 49.2789 83.8893 49.2789H79.2218V52.6719H83.8893C83.9495 52.6719 83.9805 52.7015 83.9805 52.759L84.0029 55.2162C84.0029 55.2737 83.9719 55.3034 83.9117 55.3034H79.2218V59.1091H83.9117C83.9719 59.1091 84.0029 59.1453 84.0029 59.2177V61.6962C84.0029 61.7537 83.9719 61.7833 83.9117 61.7833H76.56Z" fill="#FEF8F6"/>
<path d="M31.4996 0L31.4875 6.50466H24.8366C22.0181 6.50466 19.7266 8.69536 19.7266 11.386C19.7266 14.0784 22.0181 16.2674 24.8366 16.2674L55.5363 16.2691C54.8321 18.1588 52.9417 19.5156 50.7241 19.5156H31.4669V35.1745H33.1731C37.8681 35.1745 41.6886 31.525 41.6886 27.04V26.096H41.6903V22.7754H50.7258C55.4209 22.7754 59.2414 19.1259 59.2414 14.6408V13.0126L24.8366 13.011C23.9 13.011 23.1373 12.2824 23.1373 11.3877C23.1373 10.493 23.9 9.7644 24.8366 9.7644H55.7584C60.4552 9.7644 64.2739 6.11488 64.2739 1.62987V0H31.4996ZM38.2779 26.0828V27.04C38.2779 29.1583 36.8575 30.9642 34.8793 31.6368V22.7754H38.2796V26.0828H38.2779ZM55.7584 6.50466H34.8982V3.25809H60.5688C59.8664 5.14781 57.9759 6.50466 55.7584 6.50466Z" fill="#EB5E28"/>
</svg>
